<svg width="414" height="95.501" viewBox="0 0 414 95.501" xmlns="http://www.w3.org/2000/svg"><g id="svgGroup" stroke-linecap="round" fill-rule="evenodd" font-size="9pt" stroke="#ffffff" stroke-width="0.25mm" fill="#ffffff" style="stroke:#ffffff;stroke-width:0.25mm;fill:#ffffff"><path d="M 35.5 73.501 L 26.5 73.501 L 26.5 21.501 L 35.2 21.501 L 35.2 30.201 Q 38 26.001 42.35 23.151 A 17.316 17.316 0 0 1 49.456 20.526 A 22.629 22.629 0 0 1 52.7 20.301 A 23.225 23.225 0 0 1 57.765 20.818 Q 62.859 21.957 65.85 25.601 Q 69.975 30.626 70.188 38.709 A 33.764 33.764 0 0 1 70.2 39.601 L 70.2 73.501 L 61.2 73.501 L 61.2 40.601 A 19.265 19.265 0 0 0 60.858 36.86 Q 60.419 34.645 59.419 32.897 A 10.966 10.966 0 0 0 58.55 31.601 A 8.579 8.579 0 0 0 52.273 28.247 A 12.061 12.061 0 0 0 51.2 28.201 A 13.122 13.122 0 0 0 44.351 30.165 A 17.353 17.353 0 0 0 42.5 31.451 Q 38.4 34.701 35.5 39.101 L 35.5 73.501 Z M 335.4 73.501 L 325.9 73.501 L 325.9 46.901 L 301.6 7.401 L 309.6 2.601 L 331 38.101 L 352 3.001 L 359.5 7.401 L 335.4 46.901 L 335.4 73.501 Z M 81.2 69.301 L 85 61.801 A 18.557 18.557 0 0 0 88.144 63.926 Q 89.698 64.771 91.55 65.451 A 24.073 24.073 0 0 0 99.161 66.888 A 27.464 27.464 0 0 0 100 66.901 Q 105.392 66.901 108.235 65.185 A 7.738 7.738 0 0 0 108.45 65.051 Q 111.3 63.201 111.3 60.301 A 7.123 7.123 0 0 0 110.986 58.153 A 6.212 6.212 0 0 0 110.25 56.601 A 6.384 6.384 0 0 0 109.321 55.507 Q 108.307 54.535 106.634 53.582 A 22.3 22.3 0 0 0 106.4 53.451 A 28.462 28.462 0 0 0 104.406 52.457 Q 102.29 51.496 99.301 50.446 A 103.602 103.602 0 0 0 98.3 50.101 A 46.616 46.616 0 0 1 93.902 48.358 Q 91.788 47.384 90.112 46.296 A 19.335 19.335 0 0 1 87.35 44.151 A 11.324 11.324 0 0 1 84.056 38.154 A 16.794 16.794 0 0 1 83.7 34.601 Q 83.7 28.601 88.95 24.451 Q 93.354 20.969 100.608 20.408 A 37.527 37.527 0 0 1 103.5 20.301 A 40.794 40.794 0 0 1 107.946 20.531 Q 110.254 20.785 112.27 21.316 A 25.234 25.234 0 0 1 112.4 21.351 Q 116.3 22.401 119.4 24.001 L 116.9 31.401 Q 114.2 29.801 110.75 28.801 A 25.024 25.024 0 0 0 106.267 27.953 A 31.837 31.837 0 0 0 103.1 27.801 A 20.632 20.632 0 0 0 100.163 27.996 Q 97.077 28.441 95.2 29.901 A 9.322 9.322 0 0 0 93.842 31.174 Q 93.14 31.993 92.805 32.866 A 4.529 4.529 0 0 0 92.5 34.501 A 4.921 4.921 0 0 0 93.995 38.052 A 7.082 7.082 0 0 0 94.6 38.601 Q 96.665 40.272 102.598 42.234 A 84.459 84.459 0 0 0 102.8 42.301 A 67.753 67.753 0 0 1 107.862 44.199 Q 113.789 46.718 116.6 49.601 Q 120.5 53.601 120.5 59.601 Q 120.5 66.349 115.249 70.356 A 16.618 16.618 0 0 1 114.85 70.651 Q 110.11 74.048 102.662 74.596 A 40.423 40.423 0 0 1 99.7 74.701 Q 93.8 74.701 89.05 73.201 A 30.883 30.883 0 0 1 85.21 71.716 Q 83.229 70.785 81.648 69.636 A 18.229 18.229 0 0 1 81.2 69.301 Z M 392.5 73.501 L 383 73.501 L 383 11.901 L 361.5 11.901 L 361.5 3.501 L 414 3.501 L 414 11.901 L 392.5 11.901 L 392.5 73.501 Z M 141.9 95.501 L 132.9 95.501 L 132.9 34.801 A 11.015 11.015 0 0 0 132.773 33.065 Q 132.442 30.999 131.25 29.951 A 5.718 5.718 0 0 0 128.46 28.628 A 7.991 7.991 0 0 0 127 28.501 L 128.9 21.501 Q 134.762 21.501 137.822 24.464 A 10.15 10.15 0 0 1 140.4 28.801 Q 141.355 27.368 143.452 25.478 A 38.58 38.58 0 0 1 143.65 25.301 A 18.902 18.902 0 0 1 146.351 23.317 A 25.569 25.569 0 0 1 149.25 21.801 A 16.955 16.955 0 0 1 153.809 20.512 A 21.886 21.886 0 0 1 156.9 20.301 Q 162.9 20.301 168.15 23.451 A 22.329 22.329 0 0 1 175.328 30.418 A 27.464 27.464 0 0 1 176.6 32.551 Q 179.8 38.501 179.8 47.001 Q 179.8 55.301 176.6 61.551 A 27.846 27.846 0 0 1 172.666 67.382 A 23.029 23.029 0 0 1 168.25 71.251 Q 163.1 74.701 157.1 74.701 Q 152.5 74.701 148.5 72.851 A 30.352 30.352 0 0 1 145.084 71.012 Q 143.291 69.885 141.9 68.601 L 141.9 95.501 Z M 296.3 51.201 L 259.9 51.201 A 24.088 24.088 0 0 0 261.039 56.226 Q 262.375 60.038 265 62.601 Q 269.2 66.701 276.1 66.701 Q 280.6 66.701 284.2 65.751 Q 287.8 64.801 291.1 63.301 L 293.2 71.001 A 40.77 40.77 0 0 1 288.865 72.627 A 51.863 51.863 0 0 1 285.1 73.651 A 38.914 38.914 0 0 1 280.008 74.47 A 52.025 52.025 0 0 1 275 74.701 A 28.318 28.318 0 0 1 267.254 73.695 A 21.108 21.108 0 0 1 257.25 67.551 A 23.521 23.521 0 0 1 252.045 58.011 Q 250.7 53.346 250.7 47.501 A 35.359 35.359 0 0 1 251.533 39.679 A 28.84 28.84 0 0 1 253.65 33.551 A 24.642 24.642 0 0 1 258.666 26.469 A 22.887 22.887 0 0 1 261.9 23.851 A 21.048 21.048 0 0 1 272.159 20.379 A 26.205 26.205 0 0 1 274.2 20.301 Q 281.7 20.301 286.65 23.551 Q 291.6 26.801 294.1 32.301 A 28.185 28.185 0 0 1 296.526 42.164 A 33.434 33.434 0 0 1 296.6 44.401 A 75.204 75.204 0 0 1 296.309 51.097 A 69.426 69.426 0 0 1 296.3 51.201 Z M 226.3 73.501 L 217.3 73.501 L 217.3 21.501 L 226 21.501 L 226 32.801 Q 227.3 29.501 229.5 26.651 Q 231.7 23.801 235 22.051 A 14.817 14.817 0 0 1 239.68 20.527 A 19.459 19.459 0 0 1 242.7 20.301 Q 244.2 20.301 245.7 20.451 A 18.972 18.972 0 0 1 246.755 20.584 Q 247.255 20.663 247.682 20.763 A 8.817 8.817 0 0 1 248.2 20.901 L 245.5 30.201 A 9.763 9.763 0 0 0 243.355 29.588 Q 242.259 29.401 241 29.401 A 12.958 12.958 0 0 0 234.37 31.246 A 15.609 15.609 0 0 0 233.95 31.501 Q 230.622 33.587 228.478 37.943 A 22.927 22.927 0 0 0 228.45 38.001 Q 226.687 41.608 226.37 46.828 A 39.09 39.09 0 0 0 226.3 49.201 L 226.3 73.501 Z M 9.5 73.501 L 0 73.501 L 0 3.501 L 9.5 3.501 L 9.5 73.501 Z M 201.3 73.501 L 192.3 73.501 L 192.3 21.501 L 201.3 21.501 L 201.3 73.501 Z M 141.9 34.901 L 141.9 60.501 Q 144.5 63.201 147.9 64.951 Q 151.3 66.701 155.3 66.701 Q 161.994 66.701 166.217 61.517 A 17.38 17.38 0 0 0 166.35 61.351 A 18.792 18.792 0 0 0 169.844 54.045 Q 170.505 51.355 170.588 48.209 A 34.555 34.555 0 0 0 170.6 47.301 Q 170.6 41.301 168.45 37.001 Q 166.3 32.701 162.75 30.401 Q 159.2 28.101 154.9 28.101 A 14.741 14.741 0 0 0 149.273 29.164 A 14.054 14.054 0 0 0 147.15 30.251 Q 143.7 32.401 141.9 34.901 Z M 259.8 43.901 L 288.3 43.901 A 24.355 24.355 0 0 0 287.896 39.315 Q 287.4 36.731 286.296 34.708 A 12.422 12.422 0 0 0 284.5 32.201 A 12.488 12.488 0 0 0 277.539 28.425 A 18.395 18.395 0 0 0 274 28.101 A 13.58 13.58 0 0 0 268.888 29.036 A 12.524 12.524 0 0 0 264.4 32.151 Q 260.6 36.201 259.8 43.901 Z M 192.437 10.789 A 5.973 5.973 0 0 0 196.8 12.601 A 8.175 8.175 0 0 0 198.296 12.47 A 5.647 5.647 0 0 0 201.4 10.851 Q 203.1 9.101 203.1 6.301 A 7.26 7.26 0 0 0 203.1 6.22 A 6.06 6.06 0 0 0 201.25 1.851 A 7.395 7.395 0 0 0 201.192 1.793 A 6.059 6.059 0 0 0 196.8 0.001 A 8.264 8.264 0 0 0 195.144 0.158 A 5.661 5.661 0 0 0 192.2 1.701 A 5.588 5.588 0 0 0 190.729 4.333 A 7.987 7.987 0 0 0 190.5 6.301 A 5.992 5.992 0 0 0 190.992 8.719 A 6.643 6.643 0 0 0 192.35 10.701 A 7.466 7.466 0 0 0 192.437 10.789 Z" vector-effect="non-scaling-stroke"/></g></svg>